<?xml version="1.0" encoding="utf-8"?>
<!DOCTYPE svg PUBLIC "-//W3C//DTD SVG 1.1//EN" "http://www.w3.org/Graphics/SVG/1.1/DTD/svg11.dtd">
<svg version="1.1" xmlns="http://www.w3.org/2000/svg" xmlns:xlink="http://www.w3.org/1999/xlink" x="0px" y="0px" viewBox="0 0 1000 1000" enable-background="new 0 0 1000 1000" xml:space="preserve">
<metadata> Svg Vector Icons : http://www.onlinewebfonts.com/icon </metadata>
<g><path d="M827.9,267.5l-118.7-117c-9-8.9-21-13.8-33.7-13.8h0H506.1V94.8c0-46.7-38-84.8-84.8-84.8c-22.7,0-44,8.8-60,24.9c-16,16-24.9,37.3-24.8,60v41.9H205.8c-26.4,0-47.9,21.5-47.9,47.9v757.4c0,26.4,21.5,47.9,47.9,47.9h588.5c26.5,0,48-21.5,48-47.9V301.7C842.2,288.9,837,276.5,827.9,267.5z M786.7,282h-91.3l-0.1-90.1L786.7,282z M375.8,94.8c0-12.2,4.7-23.6,13.4-32.2c8.6-8.6,20-13.4,32.2-13.4c25.1,0,45.6,20.5,45.6,45.5v41.9h-91.1V94.8z M794.2,950.7H205.8c-4.8,0-8.7-3.9-8.7-8.7V184.7c0-4.8,3.9-8.7,8.7-8.7h261.1l0,271.6c0,37.1-30.2,67.3-67.3,67.3c0,0,0,0,0,0c-17.9,0-34.8-7-47.6-19.7c-12.7-12.7-19.7-29.6-19.7-47.6l0-182.8c0-10.8-8.8-19.6-19.6-19.6c-10.8,0-19.6,8.8-19.6,19.6l0,182.8c0,28.4,11.1,55.2,31.2,75.3c20.1,20.1,46.9,31.2,75.3,31.2c0,0,0,0,0,0c58.7,0,106.5-47.8,106.5-106.5l0-271.6H656l0.1,125.7c0,10.8,8.8,19.6,19.6,19.6h127.2V942C802.9,946.8,799,950.7,794.2,950.7z"/></g>
</svg>